<!-- icon666.com - MILLIONS vector ICONS FREE --><svg xmlns="http://www.w3.org/2000/svg" xmlns:xlink="http://www.w3.org/1999/xlink" version="1.1" id="Layer_1" x="0px" y="0px" viewBox="0 2 98 98" style="enable-background:new 0 2 98 98;" xml:space="preserve"><style type="text/css"> .st0{fill:url(#SVGID_1_);} </style><linearGradient id="SVGID_1_" gradientUnits="userSpaceOnUse" x1="49" y1="15.0953" x2="49" y2="86.9047"><stop offset="0" style="stop-color:#00EFD1"></stop><stop offset="1" style="stop-color:#00ACEA"></stop></linearGradient><path class="st0" d="M84.7,21.7c-9.3-8.8-24.4-8.8-33.7,0L49,23.6l-1.9-1.8c-9.3-8.8-24.4-8.8-33.7,0C8.8,26.1,6.2,31.8,6.2,38 c0,6.1,2.5,11.9,7.1,16.2l33.6,31.9c0.6,0.5,1.3,0.8,2.1,0.8s1.5-0.3,2.1-0.8l33.6-31.9c4.6-4.3,7.1-10.1,7.1-16.2 C91.8,31.8,89.2,26.1,84.7,21.7z M80.5,49.8L49,79.8L17.5,49.8c-3.4-3.2-5.2-7.4-5.2-11.9s1.9-8.7,5.2-11.9c3.5-3.3,8.1-5,12.7-5 c4.6,0,9.2,1.7,12.7,5l4,3.8c1.2,1.1,3,1.1,4.1,0l4-3.8c7-6.7,18.4-6.7,25.5,0c3.4,3.2,5.2,7.4,5.2,11.9S83.9,46.6,80.5,49.8z"></path></svg>